<svg width="32" height="32" viewBox="0 0 32 32" fill="none" xmlns="http://www.w3.org/2000/svg">
<rect x="5" y="5" width="22" height="22" rx="6" fill="white"/>
<path d="M10 17.5C11.7574 15.7426 13.5 14 14.5 13C15.5 12 16.5 15.5 17.5 15.5C18.5 15.5 21.5 11 21.5 11" stroke="#49982E" stroke-width="1.5" stroke-linecap="round"/>
<path d="M22.7553 20.4635C22.905 20.0029 23.5567 20.0029 23.7063 20.4635L24.3534 22.4549C24.4203 22.6609 24.6123 22.8004 24.8289 22.8004H26.9228C27.4071 22.8004 27.6085 23.4202 27.2167 23.7049L25.5227 24.9357C25.3475 25.063 25.2741 25.2887 25.3411 25.4947L25.9881 27.4861C26.1378 27.9467 25.6105 28.3298 25.2187 28.0451L23.5247 26.8143C23.3495 26.687 23.1122 26.687 22.9369 26.8143L21.2429 28.0451C20.8511 28.3298 20.3238 27.9467 20.4735 27.4861L21.1206 25.4947C21.1875 25.2887 21.1142 25.063 20.9389 24.9357L19.2449 23.7049C18.8531 23.4202 19.0545 22.8004 19.5388 22.8004H21.6327C21.8493 22.8004 22.0413 22.6609 22.1082 22.4549L22.7553 20.4635Z" fill="#5B8E49"/>
</svg>
