<svg width="16" height="16" viewBox="0 0 16 16" fill="none" xmlns="http://www.w3.org/2000/svg">
<path fill-rule="evenodd" clip-rule="evenodd" d="M6 13.3334H2.33333C1.59695 13.3334 1 12.7364 1 12V4.00002C1 3.26364 1.59695 2.66669 2.33333 2.66669H6C6.8178 2.66669 7.54387 3.05936 8 3.66644C8.45613 3.05936 9.1822 2.66669 10 2.66669H13.6667C14.4031 2.66669 15 3.26364 15 4.00002V12C15 12.7364 14.4031 13.3334 13.6667 13.3334H10C9.40587 13.3334 8.8924 13.6788 8.64953 14.1798C8.52307 14.4406 8.2898 14.6667 8 14.6667C7.7102 14.6667 7.47693 14.4406 7.35047 14.1798C7.1076 13.6788 6.59413 13.3334 6 13.3334ZM2 4.00002C2 3.81593 2.14924 3.66669 2.33333 3.66669H6C6.8284 3.66669 7.5 4.33826 7.5 5.16669V12.8332C7.0822 12.5194 6.56281 12.3334 6 12.3334H2.33333C2.14924 12.3334 2 12.1841 2 12V4.00002ZM10 3.66669C9.1716 3.66669 8.5 4.33826 8.5 5.16669V12.8332C8.9178 12.5194 9.4372 12.3334 10 12.3334H13.6667C13.8507 12.3334 14 12.1841 14 12V4.00002C14 3.81593 13.8507 3.66669 13.6667 3.66669H10Z" fill="black"/>
</svg>
