<svg width="24" height="24" viewBox="0 0 24 24" fill="none" xmlns="http://www.w3.org/2000/svg">
<path fill-rule="evenodd" clip-rule="evenodd" d="M9.14286 19H3.90476C2.85279 19 2 18.1046 2 17V5C2 3.89543 2.85279 3 3.90476 3H9.14286C10.3111 3 11.3484 3.58901 12 4.49963C12.6516 3.58901 13.6889 3 14.8571 3H20.0952C21.1472 3 22 3.89543 22 5V17C22 18.1046 21.1472 19 20.0952 19H14.8571C14.0084 19 13.2749 19.5181 12.9279 20.2696C12.7472 20.6608 12.414 21 12 21C11.586 21 11.2528 20.6608 11.0721 20.2696C10.7251 19.5181 9.99162 19 9.14286 19ZM3.42857 5C3.42857 4.72386 3.64177 4.5 3.90476 4.5H9.14286C10.3263 4.5 11.2857 5.50736 11.2857 6.75V18.2497C10.6889 17.779 9.94687 17.5 9.14286 17.5H3.90476C3.64177 17.5 3.42857 17.2761 3.42857 17V5ZM14.8571 4.5C13.6737 4.5 12.7143 5.50736 12.7143 6.75V18.2497C13.3111 17.779 14.0531 17.5 14.8571 17.5H20.0952C20.3582 17.5 20.5714 17.2761 20.5714 17V5C20.5714 4.72386 20.3582 4.5 20.0952 4.5H14.8571Z" fill="black"/>
</svg>
