<svg width="16" height="16" viewBox="0 0 16 16" fill="none" xmlns="http://www.w3.org/2000/svg">
<path d="M10.6666 6.66669C10.6666 6.94282 10.4428 7.16669 10.1666 7.16669H5.83331C5.55717 7.16669 5.33331 6.94282 5.33331 6.66669C5.33331 6.39055 5.55717 6.16669 5.83331 6.16669H10.1666C10.4428 6.16669 10.6666 6.39055 10.6666 6.66669Z" fill="black"/>
<path d="M9.33331 9.33331C9.33331 9.60945 9.10945 9.83331 8.83331 9.83331H5.83331C5.55717 9.83331 5.33331 9.60945 5.33331 9.33331C5.33331 9.05718 5.55717 8.83331 5.83331 8.83331H8.83331C9.10945 8.83331 9.33331 9.05718 9.33331 9.33331Z" fill="black"/>
<path fill-rule="evenodd" clip-rule="evenodd" d="M6.66669 0.666687C5.93031 0.666687 5.33335 1.26364 5.33335 2.00002H4.00002C3.26364 2.00002 2.66669 2.59697 2.66669 3.33335V13.3334C2.66669 14.0698 3.26364 14.6667 4.00002 14.6667H12C12.7364 14.6667 13.3334 14.0698 13.3334 13.3334V3.33335C13.3334 2.59697 12.7364 2.00002 12 2.00002H10.6667C10.6667 1.26364 10.0698 0.666687 9.33335 0.666687H6.66669ZM9.66669 2.00002C9.66669 1.81593 9.51742 1.66669 9.33335 1.66669H6.66669C6.48259 1.66669 6.33335 1.81593 6.33335 2.00002V3.00002C6.33335 3.18411 6.48259 3.33335 6.66669 3.33335H9.33335C9.51742 3.33335 9.66669 3.18411 9.66669 3.00002V2.00002ZM10.6667 3.00002C10.6667 3.7364 10.0698 4.33335 9.33335 4.33335H6.66669C5.93031 4.33335 5.33335 3.7364 5.33335 3.00002H4.00002C3.81593 3.00002 3.66669 3.14926 3.66669 3.33335V13.3334C3.66669 13.5174 3.81593 13.6667 4.00002 13.6667H12C12.1841 13.6667 12.3334 13.5174 12.3334 13.3334V3.33335C12.3334 3.14926 12.1841 3.00002 12 3.00002H10.6667Z" fill="black"/>
</svg>
