<svg width="24" height="24" viewBox="0 0 24 24" fill="none" xmlns="http://www.w3.org/2000/svg">
<path d="M21.4962 10.699C21.4956 10.6986 21.4951 10.698 21.4947 10.6975L13.3363 2.53945C12.9885 2.19148 12.5261 2 12.0344 2C11.5426 2 11.0803 2.19148 10.7324 2.53941L2.57818 10.6934C2.57545 10.6961 2.57256 10.699 2.56998 10.7018C1.85584 11.42 1.85709 12.5853 2.57349 13.3017C2.90076 13.6291 3.33287 13.8187 3.79509 13.8386C3.814 13.8405 3.83295 13.8414 3.85201 13.8414H4.17701V19.8451C4.17701 21.0333 5.14381 22 6.33201 22H9.52385C9.84748 22 10.1098 21.7375 10.1098 21.414V16.707C10.1098 16.1649 10.5509 15.7239 11.0931 15.7239H12.9757C13.5179 15.7239 13.9588 16.1649 13.9588 16.707V21.4141C13.9588 21.7375 14.2211 22 14.5447 22H17.7366C18.9249 22 19.8916 21.0334 19.8916 19.8452V13.8414H20.1931C20.6847 13.8414 21.1471 13.6499 21.4951 13.3018C22.2123 12.5844 22.2126 11.4169 21.4962 10.699L21.4962 10.699ZM20.6664 12.4733C20.6044 12.5357 20.5307 12.5852 20.4494 12.6188C20.3682 12.6525 20.2811 12.6698 20.1931 12.6696H19.3056C18.982 12.6696 18.7197 12.9318 18.7197 13.2555V19.8452C18.7197 20.3871 18.2787 20.8281 17.7365 20.8281H15.1307V16.707C15.1307 15.5188 14.164 14.552 12.9756 14.552H11.0931C9.90474 14.552 8.93795 15.5188 8.93795 16.707V20.8281H6.33209C5.79006 20.8281 5.34892 20.3871 5.34892 19.8452V13.2555C5.34892 12.9318 5.08662 12.6695 4.76299 12.6695H3.89076C3.88162 12.6689 3.87246 12.6685 3.8633 12.6683C3.68873 12.6652 3.52502 12.596 3.40236 12.4731C3.14142 12.2122 3.14142 11.7876 3.40236 11.5265C3.40248 11.5265 3.40248 11.5263 3.40263 11.5262L3.4031 11.5257L11.5612 3.36797C11.6232 3.30559 11.6969 3.25613 11.7781 3.22247C11.8594 3.18881 11.9465 3.17161 12.0344 3.17188C12.2131 3.17188 12.3811 3.24145 12.5076 3.36797L20.6638 11.5241L20.6676 11.5277C20.9272 11.7891 20.9267 12.2129 20.6664 12.4733Z" fill="white" stroke="white" stroke-width="0.3"/>
</svg>
