<svg width="14" height="14" viewBox="0 0 14 14" fill="none" xmlns="http://www.w3.org/2000/svg">
<g clip-path="url(#clip0_238_440)">
<mask id="mask0_238_440" style="mask-type:luminance" maskUnits="userSpaceOnUse" x="0" y="0" width="14" height="14">
<path d="M13.6 13.6V0.400035H0.4V13.6H13.6Z" fill="white" stroke="white" stroke-width="0.8"/>
</mask>
<g mask="url(#mask0_238_440)">
<path d="M12.6484 6.99989C12.6484 10.1065 10.1066 12.6483 6.99998 12.6483C3.8934 12.6483 1.35156 10.1065 1.35156 6.99989C1.35156 3.89331 3.8934 1.35147 6.99998 1.35147C10.1066 1.35147 12.6484 3.89331 12.6484 6.99989Z" stroke="black" stroke-width="0.8" stroke-miterlimit="10"/>
<path d="M9.81248 6.99989C9.81248 10.1065 8.55328 12.6483 6.99999 12.6483C5.4467 12.6483 4.1875 10.1065 4.1875 6.99989C4.1875 3.89331 5.4467 1.35147 6.99999 1.35147C8.55328 1.35147 9.81248 3.89331 9.81248 6.99989Z" stroke="black" stroke-width="0.8" stroke-miterlimit="10"/>
<path d="M6.99997 1.35147V12.6483" stroke="black" stroke-width="0.8" stroke-miterlimit="10"/>
<path d="M1.35156 6.99988H12.6484" stroke="black" stroke-width="0.8" stroke-miterlimit="10"/>
<path d="M11.8725 9.81238H2.12753" stroke="black" stroke-width="0.8" stroke-miterlimit="10"/>
<path d="M2.12753 4.16394H11.8725" stroke="black" stroke-width="0.8" stroke-miterlimit="10"/>
</g>
</g>
<defs>
<clipPath id="clip0_238_440">
<rect width="14" height="14" fill="white"/>
</clipPath>
</defs>
</svg>
