<svg width="32" height="32" viewBox="0 0 32 32" fill="none" xmlns="http://www.w3.org/2000/svg">
<path fill-rule="evenodd" clip-rule="evenodd" d="M14.1354 7.72495C14.048 7.50018 14 7.25569 14 7C14 5.89543 14.8954 5 16 5C17.1046 5 18 5.89543 18 7C18 7.25569 17.952 7.50018 17.8646 7.72495L23.8532 13.3613C24.1779 13.1336 24.5733 13 25 13C26.1046 13 27 13.8954 27 15C27 16.1046 26.1046 17 25 17C23.8954 17 23 16.1046 23 15C23 14.8797 23.0106 14.7618 23.031 14.6473L16.8365 8.81721C16.582 8.93455 16.2986 9 16 9C15.7014 9 15.418 8.93455 15.1635 8.81721L9.70525 13.9544C9.89219 14.2586 10 14.6167 10 15C10 16.1046 9.10457 17 8 17C6.89543 17 6 16.1046 6 15C6 13.8954 6.89543 13 8 13C8.16236 13 8.3202 13.0193 8.47134 13.0559L14.1354 7.72495Z" fill="#FF9053"/>
<path d="M18.5405 22.948C21.288 19.4169 20.6109 17.5699 16 14.5C10.9637 17.922 10.9933 19.7677 13.5 23L18.5405 22.948Z" fill="white"/>
<path d="M19 23H13V26C13 26.5523 13.4477 27 14 27H18C18.5523 27 19 26.5523 19 26V23Z" fill="#FF9053"/>
</svg>
