<svg width="16" height="16" viewBox="0 0 16 16" fill="none" xmlns="http://www.w3.org/2000/svg">
<g clip-path="url(#clip0_211_515)">
<mask id="mask0_211_515" style="mask-type:luminance" maskUnits="userSpaceOnUse" x="0" y="0" width="16" height="16">
<path d="M16 0H0V16H16V0Z" fill="white"/>
</mask>
<g mask="url(#mask0_211_515)">
<path fill-rule="evenodd" clip-rule="evenodd" d="M4.66669 7C6.0474 7 7.16669 5.88071 7.16669 4.5C7.16669 3.11929 6.0474 2 4.66669 2C3.28597 2 2.16669 3.11929 2.16669 4.5C2.16669 5.88071 3.28597 7 4.66669 7ZM4.66669 6C5.49511 6 6.16669 5.32843 6.16669 4.5C6.16669 3.67157 5.49511 3 4.66669 3C3.83826 3 3.16669 3.67157 3.16669 4.5C3.16669 5.32843 3.83826 6 4.66669 6Z" fill="black"/>
<path fill-rule="evenodd" clip-rule="evenodd" d="M13.8333 4.5C13.8333 5.88071 12.714 7 11.3333 7C9.95258 7 8.83331 5.88071 8.83331 4.5C8.83331 3.11929 9.95258 2 11.3333 2C12.714 2 13.8333 3.11929 13.8333 4.5ZM12.8333 4.5C12.8333 5.32843 12.1617 6 11.3333 6C10.5049 6 9.83331 5.32843 9.83331 4.5C9.83331 3.67157 10.5049 3 11.3333 3C12.1617 3 12.8333 3.67157 12.8333 4.5Z" fill="black"/>
<path d="M9.74894 9.2654C10.2443 9.0936 10.777 9 11.3333 9C12.7817 9 14.0805 9.63587 14.9678 10.647C14.9729 10.6528 15 10.6902 15 10.7779V12C15 12.1841 14.8507 12.3333 14.6667 12.3333H10.3097C10.2571 12.7013 10.1185 13.0417 9.91514 13.3333H14.6667C15.4031 13.3333 16 12.7364 16 12V10.7779C16 10.4889 15.9099 10.2045 15.7194 9.9874C14.6503 8.76907 13.0816 8 11.3333 8C10.505 8 9.71701 8.17267 9.00334 8.48393C8.98521 8.4918 8.96747 8.5002 8.95007 8.50893C9.23634 8.73947 9.50354 8.99253 9.74894 9.2654Z" fill="black"/>
<path fill-rule="evenodd" clip-rule="evenodd" d="M8 13.3333C8.31533 13.3333 8.60507 13.2239 8.83333 13.0409C9.13813 12.7965 9.33333 12.4211 9.33333 12V10.7779C9.33333 10.4889 9.24327 10.2045 9.05273 9.9874C8.8406 9.74567 8.60873 9.5216 8.3598 9.31773C7.354 8.49413 6.06803 8 4.66667 8C2.91839 8 1.34974 8.76907 0.280605 9.9874C0.090064 10.2045 0 10.4889 0 10.7779V12C0 12.7364 0.596954 13.3333 1.33333 13.3333H8ZM8.30113 10.647C8.3062 10.6528 8.33333 10.6902 8.33333 10.7779V12C8.33333 12.1841 8.18407 12.3333 8 12.3333H1.33333C1.14924 12.3333 1 12.1841 1 12V10.7779C1 10.6902 1.02716 10.6528 1.03223 10.647C1.91956 9.63587 3.21825 9 4.66667 9C6.11508 9 7.4138 9.63587 8.30113 10.647Z" fill="black"/>
</g>
</g>
<defs>
<clipPath id="clip0_211_515">
<rect width="16" height="16" fill="white"/>
</clipPath>
</defs>
</svg>
