<svg width="24" height="24" viewBox="0 0 24 24" fill="none" xmlns="http://www.w3.org/2000/svg">
<g clip-path="url(#clip0_46_3256)">
<path d="M21.4961 10.699C21.4955 10.6986 21.495 10.698 21.4945 10.6975L13.3361 2.53945C12.9884 2.19148 12.526 2 12.0343 2C11.5425 2 11.0801 2.19148 10.7322 2.53941L2.57806 10.6934C2.57532 10.6961 2.57243 10.699 2.56986 10.7018C1.85571 11.42 1.85696 12.5853 2.57337 13.3017C2.90064 13.6291 3.33275 13.8187 3.79497 13.8386C3.81388 13.8405 3.83282 13.8414 3.85189 13.8414H4.17689V19.8451C4.17689 21.0333 5.14368 22 6.33189 22H9.52372C9.84736 22 10.1097 21.7375 10.1097 21.414V16.707C10.1097 16.1649 10.5508 15.7239 11.0929 15.7239H12.9756C13.5177 15.7239 13.9587 16.1649 13.9587 16.707V21.4141C13.9587 21.7375 14.221 22 14.5446 22H17.7365C18.9248 22 19.8915 21.0334 19.8915 19.8452V13.8414H20.193C20.6846 13.8414 21.147 13.6499 21.495 13.3018C22.2122 12.5844 22.2125 11.4169 21.4961 10.699L21.4961 10.699ZM20.6663 12.4733C20.6043 12.5357 20.5305 12.5852 20.4493 12.6188C20.368 12.6525 20.2809 12.6698 20.193 12.6696H19.3055C18.9818 12.6696 18.7195 12.9318 18.7195 13.2555V19.8452C18.7195 20.3871 18.2786 20.8281 17.7364 20.8281H15.1306V16.707C15.1306 15.5188 14.1639 14.552 12.9755 14.552H11.093C9.90462 14.552 8.93782 15.5188 8.93782 16.707V20.8281H6.33196C5.78993 20.8281 5.3488 20.3871 5.3488 19.8452V13.2555C5.3488 12.9318 5.0865 12.6695 4.76286 12.6695H3.89064C3.88149 12.6689 3.87234 12.6685 3.86318 12.6683C3.68861 12.6652 3.52489 12.596 3.40224 12.4731C3.1413 12.2122 3.1413 11.7876 3.40224 11.5265C3.40236 11.5265 3.40236 11.5263 3.40251 11.5262L3.40298 11.5257L11.5611 3.36797C11.623 3.30559 11.6968 3.25613 11.778 3.22247C11.8592 3.18881 11.9463 3.17161 12.0343 3.17188C12.2129 3.17188 12.3809 3.24145 12.5074 3.36797L20.6637 11.5241L20.6675 11.5277C20.9271 11.7891 20.9266 12.2129 20.6663 12.4733Z" fill="black" stroke="black" stroke-width="0.3"/>
</g>
<defs>
<clipPath id="clip0_46_3256">
<rect width="24" height="24" fill="white"/>
</clipPath>
</defs>
</svg>
