<svg width="12" height="12" viewBox="0 0 12 12" fill="none" xmlns="http://www.w3.org/2000/svg">
<g clip-path="url(#clip0_238_435)">
<path d="M4.78878 8.14008C4.93796 8.14008 5.08104 8.19934 5.18652 8.30483C5.29201 8.41032 5.35128 8.55339 5.35128 8.70258V10.073C5.35146 10.2836 5.4352 10.4855 5.58411 10.6345C5.73303 10.7835 5.93495 10.8672 6.14557 10.8675H10.077C10.2876 10.8672 10.4895 10.7835 10.6384 10.6345C10.7874 10.4855 10.8711 10.2836 10.8713 10.073V1.91953C10.8711 1.70891 10.7874 1.50696 10.6384 1.358C10.4895 1.20904 10.2876 1.12525 10.077 1.125H6.14557C5.93495 1.12525 5.73303 1.20904 5.58411 1.358C5.4352 1.50696 5.35146 1.70891 5.35128 1.91953V3.10406C5.35128 3.25325 5.29201 3.39632 5.18652 3.50181C5.08104 3.6073 4.93796 3.66656 4.78878 3.66656C4.63959 3.66656 4.49652 3.6073 4.39103 3.50181C4.28554 3.39632 4.22628 3.25325 4.22628 3.10406V1.91953C4.2269 1.41067 4.4293 0.922826 4.7891 0.562985C5.14889 0.203144 5.63671 0.00068224 6.14557 0H10.077C10.5858 0.00068224 11.0737 0.203144 11.4335 0.562985C11.7933 0.922826 11.9957 1.41067 11.9963 1.91953V10.073C11.9957 10.5818 11.7933 11.0697 11.4335 11.4295C11.0737 11.7894 10.5858 11.9918 10.077 11.9925H6.14557C5.63671 11.9918 5.14889 11.7894 4.7891 11.4295C4.4293 11.0697 4.2269 10.5818 4.22628 10.073V8.70258C4.22628 8.55339 4.28554 8.41032 4.39103 8.30483C4.49652 8.19934 4.63959 8.14008 4.78878 8.14008Z" fill="black"/>
<path d="M0.169729 5.58684L2.17153 3.58645C2.27566 3.48235 2.41646 3.42323 2.5637 3.42178C2.71093 3.42033 2.85287 3.47668 2.95903 3.57872C3.18637 3.79739 3.18098 4.1677 2.95785 4.39083L1.91559 5.4338H6.79059C6.93977 5.4338 7.08285 5.49306 7.18834 5.59855C7.29383 5.70404 7.35309 5.84711 7.35309 5.9963C7.35309 6.14548 7.29383 6.28855 7.18834 6.39404C7.08285 6.49953 6.93977 6.5588 6.79059 6.5588H1.91559L2.96793 7.61114C3.07345 7.71663 3.13274 7.85971 3.13276 8.00891C3.13278 8.15811 3.07353 8.30121 2.96805 8.40673C2.86256 8.51224 2.71948 8.57153 2.57028 8.57156C2.42108 8.57158 2.27798 8.51233 2.17246 8.40684L0.169729 6.40505C0.115935 6.35136 0.073257 6.2876 0.0441375 6.2174C0.015018 6.1472 2.95639e-05 6.07194 2.95639e-05 5.99595C2.95639e-05 5.91995 0.015018 5.84469 0.0441375 5.77449C0.073257 5.7043 0.115935 5.64053 0.169729 5.58684Z" fill="black"/>
</g>
<defs>
<clipPath id="clip0_238_435">
<rect width="12" height="12" fill="white" transform="matrix(-1 0 0 1 12 0)"/>
</clipPath>
</defs>
</svg>
