<svg width="12" height="12" viewBox="0 0 12 12" fill="none" xmlns="http://www.w3.org/2000/svg">
<path d="M1.17532 8.6745C1.08399 8.67448 0.994724 8.64738 0.918795 8.59663C0.842867 8.54589 0.783688 8.47377 0.748742 8.38939C0.713795 8.30501 0.70465 8.21217 0.722461 8.1226C0.740273 8.03303 0.784242 7.95075 0.848809 7.88616L8.06578 0.669188C8.10838 0.625079 8.15934 0.589896 8.21569 0.565692C8.27203 0.541488 8.33263 0.528749 8.39395 0.528216C8.45527 0.527683 8.51609 0.539368 8.57284 0.562589C8.6296 0.58581 8.68117 0.620102 8.72453 0.663464C8.76789 0.706826 8.80218 0.75839 8.8254 0.815147C8.84862 0.871904 8.86031 0.932717 8.85978 0.994038C8.85924 1.05536 8.8465 1.11596 8.8223 1.1723C8.79809 1.22865 8.76291 1.27961 8.7188 1.32221L1.50183 8.53918C1.41178 8.62924 1.29355 8.6745 1.17532 8.6745Z" fill="black"/>
<path d="M0.462196 12.0003C0.393284 12.0004 0.325233 11.985 0.263032 11.9554C0.200832 11.9257 0.146058 11.8825 0.102726 11.8289C0.0593939 11.7753 0.0286028 11.7127 0.0126096 11.6457C-0.00338358 11.5787 -0.00417341 11.5089 0.0102981 11.4415L0.723821 8.11568C0.736381 8.05622 0.760552 7.99983 0.794948 7.94973C0.829345 7.89963 0.873291 7.85681 0.924267 7.82373C0.975244 7.79065 1.03225 7.76795 1.09201 7.75694C1.15178 7.74593 1.21313 7.74683 1.27255 7.75958C1.33196 7.77232 1.38828 7.79667 1.43827 7.83122C1.48826 7.86578 1.53094 7.90986 1.56386 7.96094C1.59678 8.01202 1.6193 8.06909 1.63012 8.12889C1.64094 8.18869 1.63986 8.25004 1.62692 8.30942L0.913401 11.6353C0.891274 11.7385 0.834419 11.8311 0.752313 11.8975C0.670207 11.964 0.567812 12.0003 0.462196 12.0003ZM3.78758 11.2868C3.69625 11.2868 3.60698 11.2597 3.53106 11.209C3.45513 11.1582 3.39595 11.0861 3.361 11.0017C3.32606 10.9173 3.31691 10.8245 3.33472 10.7349C3.35253 10.6453 3.3965 10.5631 3.46107 10.4985L10.678 3.28174C10.7206 3.23763 10.7716 3.20245 10.8279 3.17824C10.8843 3.15404 10.9449 3.1413 11.0062 3.14076C11.0675 3.14023 11.1283 3.15192 11.1851 3.17514C11.2419 3.19836 11.2934 3.23265 11.3368 3.27601C11.3801 3.31938 11.4144 3.37094 11.4377 3.4277C11.4609 3.48445 11.4726 3.54527 11.472 3.60659C11.4715 3.66791 11.4588 3.72851 11.4346 3.78485C11.4104 3.8412 11.3752 3.89216 11.3311 3.93476L4.11432 11.1515C4.07147 11.1945 4.02054 11.2286 3.96446 11.2518C3.90839 11.275 3.84827 11.2869 3.78758 11.2868Z" fill="black"/>
<path d="M0.461255 12.0003C0.347455 11.9999 0.237837 11.9574 0.153407 11.8811C0.0689778 11.8048 0.0156765 11.7 0.00371865 11.5868C-0.00823923 11.4737 0.0219874 11.3601 0.0886056 11.2678C0.155224 11.1755 0.253547 11.1111 0.364733 11.0869L3.69058 10.3733C3.81017 10.3481 3.93491 10.3712 4.03744 10.4378C4.13997 10.5043 4.21195 10.6088 4.23758 10.7283C4.26322 10.8478 4.24043 10.9726 4.17422 11.0754C4.108 11.1781 4.00375 11.2504 3.88432 11.2764L0.55847 11.99C0.526536 11.9969 0.49394 12.0004 0.461255 12.0003ZM9.69826 5.37613C9.63759 5.37624 9.57751 5.36434 9.52147 5.34112C9.46543 5.31789 9.41454 5.2838 9.37175 5.24081L6.75942 2.62849C6.71531 2.58589 6.68013 2.53493 6.65592 2.47858C6.63172 2.42224 6.61898 2.36164 6.61845 2.30031C6.61791 2.23899 6.6296 2.17818 6.65282 2.12142C6.67604 2.06467 6.71033 2.0131 6.7537 1.96974C6.79706 1.92638 6.84862 1.89209 6.90538 1.86887C6.96214 1.84564 7.02295 1.83396 7.08427 1.83449C7.14559 1.83502 7.20619 1.84777 7.26254 1.87197C7.31888 1.89617 7.36984 1.93136 7.41244 1.97547L10.0248 4.58779C10.0893 4.65238 10.1333 4.73466 10.1511 4.82423C10.1689 4.9138 10.1598 5.00665 10.1248 5.09102C10.0899 5.1754 10.0307 5.24752 9.95478 5.29826C9.87885 5.34901 9.78958 5.37611 9.69826 5.37613ZM11.0045 4.07008C10.9131 4.07015 10.8238 4.04311 10.7478 3.99237C10.6718 3.94162 10.6125 3.86947 10.5775 3.78504C10.5425 3.7006 10.5334 3.60769 10.5512 3.51806C10.5691 3.42842 10.6131 3.3461 10.6778 3.28151C10.9348 3.02451 11.0763 2.67652 11.0763 2.30198C11.0763 1.92744 10.9348 1.57945 10.6778 1.32244C10.4206 1.0652 10.0726 0.923654 9.69803 0.923654C9.32348 0.923654 8.9755 1.0652 8.71849 1.32244C8.6756 1.36533 8.62467 1.39936 8.56863 1.42257C8.51259 1.44579 8.45252 1.45774 8.39186 1.45774C8.3312 1.45774 8.27114 1.44579 8.21509 1.42257C8.15905 1.39936 8.10813 1.36533 8.06524 1.32244C8.02234 1.27955 7.98832 1.22863 7.9651 1.17258C7.94189 1.11654 7.92994 1.05647 7.92994 0.995815C7.92994 0.935154 7.94189 0.875088 7.9651 0.819045C7.98832 0.763002 8.02234 0.712081 8.06524 0.669187C8.49658 0.23761 9.07641 0 9.69803 0C10.3194 0 10.8995 0.23761 11.3308 0.669187C11.7624 1.10053 12 1.68036 12 2.30198C12 2.9236 11.7624 3.50342 11.3308 3.93477C11.288 3.97773 11.2372 4.0118 11.1812 4.03503C11.1252 4.05825 11.0652 4.07016 11.0045 4.07008Z" fill="black"/>
</svg>
