<svg width="189" height="31" viewBox="0 0 189 31" fill="none" xmlns="http://www.w3.org/2000/svg">
<path d="M44.774 24.9031C42.6285 24.9031 40.8233 24.4333 39.3585 23.4935C37.8938 22.5334 36.8623 21.2361 36.264 19.6018L39.9156 17.4875C40.7614 19.6733 42.4222 20.7663 44.8978 20.7663C46.0944 20.7663 46.9712 20.5518 47.5282 20.1228C48.0852 19.6938 48.3637 19.1524 48.3637 18.4987C48.3637 17.7428 48.0233 17.1606 47.3425 16.752C46.6617 16.323 45.4445 15.8634 43.6909 15.3731C42.7213 15.0871 41.8961 14.8011 41.2153 14.5151C40.5551 14.2291 39.8846 13.8511 39.2038 13.3813C38.5436 12.891 38.0382 12.2781 37.6875 11.5427C37.3368 10.8072 37.1614 9.94921 37.1614 8.96863C37.1614 7.02789 37.8525 5.48552 39.2348 4.3415C40.6376 3.17706 42.319 2.59483 44.2789 2.59483C46.0325 2.59483 47.5695 3.02384 48.8898 3.88185C50.2308 4.71943 51.2726 5.89409 52.0153 7.40582L48.4256 9.45892C47.5592 7.62033 46.1769 6.70103 44.2789 6.70103C43.3918 6.70103 42.6904 6.90532 42.1746 7.3139C41.6795 7.70204 41.4319 8.21276 41.4319 8.84606C41.4319 9.52021 41.7104 10.0718 42.2674 10.5008C42.8451 10.9094 43.9385 11.3588 45.5477 11.8491C46.2079 12.0534 46.703 12.2168 47.0331 12.3394C47.3838 12.4415 47.848 12.6152 48.4256 12.8603C49.0239 13.085 49.4778 13.2995 49.7873 13.5038C50.1173 13.7081 50.4887 13.9839 50.9013 14.3312C51.3139 14.6785 51.6234 15.036 51.8297 15.4037C52.0566 15.7714 52.2423 16.2209 52.3867 16.752C52.5517 17.2627 52.6343 17.8245 52.6343 18.4374C52.6343 20.419 51.9019 21.992 50.4371 23.1565C48.993 24.3209 47.1053 24.9031 44.774 24.9031Z" fill="#353297"/>
<path d="M63.156 8.72348C65.2397 8.72348 67.0139 9.50999 68.4787 11.083C69.9641 12.6356 70.7068 14.5457 70.7068 16.8133C70.7068 19.0809 69.9641 21.0012 68.4787 22.5742C67.0139 24.1268 65.2397 24.9031 63.156 24.9031C60.9898 24.9031 59.3188 24.1575 58.1428 22.6662V30.6028H54.1508V9.15249H58.1428V10.9604C59.3188 9.46914 60.9898 8.72348 63.156 8.72348ZM59.3497 19.9389C60.1543 20.7356 61.1755 21.134 62.4133 21.134C63.6512 21.134 64.6724 20.7356 65.477 19.9389C66.3022 19.1218 66.7148 18.0799 66.7148 16.8133C66.7148 15.5467 66.3022 14.5151 65.477 13.7183C64.6724 12.9012 63.6512 12.4926 62.4133 12.4926C61.1755 12.4926 60.1543 12.9012 59.3497 13.7183C58.5451 14.5151 58.1428 15.5467 58.1428 16.8133C58.1428 18.0799 58.5451 19.1218 59.3497 19.9389Z" fill="#353297"/>
<path d="M75.8121 18.4374C76.3485 20.3577 77.803 21.3179 80.1755 21.3179C81.7021 21.3179 82.8574 20.8071 83.6414 19.7857L86.8597 21.6243C85.3331 23.8102 83.0844 24.9031 80.1136 24.9031C77.5554 24.9031 75.5027 24.137 73.9554 22.6049C72.4081 21.0727 71.6345 19.1422 71.6345 16.8133C71.6345 14.5048 72.3978 12.5845 73.9244 11.0524C75.4511 9.49978 77.411 8.72348 79.8041 8.72348C82.0735 8.72348 83.9405 9.49978 85.4053 11.0524C86.8907 12.605 87.6334 14.5253 87.6334 16.8133C87.6334 17.324 87.5818 17.8654 87.4787 18.4374H75.8121ZM75.7502 15.3731H83.6414C83.4145 14.3312 82.94 13.5549 82.2179 13.0442C81.5164 12.5335 80.7119 12.2781 79.8041 12.2781C78.7313 12.2781 77.8442 12.5539 77.1428 13.1055C76.4414 13.6366 75.9772 14.3925 75.7502 15.3731Z" fill="#353297"/>
<path d="M92.5893 18.4374C93.1257 20.3577 94.5801 21.3179 96.9526 21.3179C98.4793 21.3179 99.6346 20.8071 100.419 19.7857L103.637 21.6243C102.11 23.8102 99.8615 24.9031 96.8908 24.9031C94.3326 24.9031 92.2798 24.137 90.7326 22.6049C89.1853 21.0727 88.4116 19.1422 88.4116 16.8133C88.4116 14.5048 89.1749 12.5845 90.7016 11.0524C92.2283 9.49978 94.1882 8.72348 96.5813 8.72348C98.8506 8.72348 100.718 9.49978 102.182 11.0524C103.668 12.605 104.411 14.5253 104.411 16.8133C104.411 17.324 104.359 17.8654 104.256 18.4374H92.5893ZM92.5274 15.3731H100.419C100.192 14.3312 99.7171 13.5549 98.9951 13.0442C98.2936 12.5335 97.489 12.2781 96.5813 12.2781C95.5085 12.2781 94.6214 12.5539 93.92 13.1055C93.2185 13.6366 92.7543 14.3925 92.5274 15.3731Z" fill="#353297"/>
<path d="M117.722 3.02384H121.714V24.4741H117.722V22.6662C116.546 24.1575 114.875 24.9031 112.709 24.9031C110.625 24.9031 108.84 24.1268 107.355 22.5742C105.89 21.0012 105.158 19.0809 105.158 16.8133C105.158 14.5457 105.89 12.6356 107.355 11.083C108.84 9.50999 110.625 8.72348 112.709 8.72348C114.875 8.72348 116.546 9.46914 117.722 10.9604V3.02384ZM110.357 19.9389C111.182 20.7356 112.213 21.134 113.451 21.134C114.689 21.134 115.71 20.7356 116.515 19.9389C117.32 19.1218 117.722 18.0799 117.722 16.8133C117.722 15.5467 117.32 14.5151 116.515 13.7183C115.71 12.9012 114.689 12.4926 113.451 12.4926C112.213 12.4926 111.182 12.9012 110.357 13.7183C109.552 14.5151 109.15 15.5467 109.15 16.8133C109.15 18.0799 109.552 19.1218 110.357 19.9389Z" fill="#353297"/>
<path d="M132.885 8.72348C134.576 8.72348 135.969 9.28528 137.062 10.4089C138.176 11.5324 138.733 13.085 138.733 15.0666V24.4741H134.741V15.5569C134.741 14.5355 134.463 13.7592 133.906 13.228C133.349 12.6765 132.606 12.4007 131.678 12.4007C130.646 12.4007 129.821 12.7173 129.202 13.3506C128.583 13.9839 128.274 14.9338 128.274 16.2004V24.4741H124.282V3.02384H128.274V10.8685C129.243 9.43849 130.78 8.72348 132.885 8.72348Z" fill="#F2994A"/>
<path d="M152.818 9.15249H156.81V24.4741H152.818V22.6662C151.622 24.1575 149.94 24.9031 147.774 24.9031C145.711 24.9031 143.937 24.1268 142.451 22.5742C140.987 21.0012 140.254 19.0809 140.254 16.8133C140.254 14.5457 140.987 12.6356 142.451 11.083C143.937 9.50999 145.711 8.72348 147.774 8.72348C149.94 8.72348 151.622 9.46914 152.818 10.9604V9.15249ZM145.453 19.9389C146.258 20.7356 147.279 21.134 148.517 21.134C149.755 21.134 150.776 20.7356 151.58 19.9389C152.406 19.1218 152.818 18.0799 152.818 16.8133C152.818 15.5467 152.406 14.5151 151.58 13.7183C150.776 12.9012 149.755 12.4926 148.517 12.4926C147.279 12.4926 146.258 12.9012 145.453 13.7183C144.648 14.5151 144.246 15.5467 144.246 16.8133C144.246 18.0799 144.648 19.1218 145.453 19.9389Z" fill="#F2994A"/>
<path d="M166.712 24.9031C164.381 24.9031 162.431 24.1268 160.863 22.5742C159.316 21.0216 158.542 19.1013 158.542 16.8133C158.542 14.5253 159.316 12.605 160.863 11.0524C162.431 9.49978 164.381 8.72348 166.712 8.72348C168.218 8.72348 169.59 9.08099 170.828 9.796C172.066 10.511 173.004 11.4712 173.644 12.6765L170.209 14.6683C169.899 14.035 169.425 13.5345 168.785 13.1668C168.167 12.799 167.465 12.6152 166.681 12.6152C165.485 12.6152 164.494 13.0135 163.71 13.8103C162.926 14.5866 162.534 15.5876 162.534 16.8133C162.534 18.0186 162.926 19.0196 163.71 19.8163C164.494 20.5926 165.485 20.9808 166.681 20.9808C167.486 20.9808 168.197 20.8071 168.816 20.4598C169.456 20.0921 169.93 19.5916 170.24 18.9583L173.706 20.9195C173.025 22.1248 172.066 23.0952 170.828 23.8306C169.59 24.5456 168.218 24.9031 166.712 24.9031Z" fill="#F2994A"/>
<path d="M189 24.4741H184.358L178.726 17.5181V24.4741H174.734V3.02384H178.726V15.894L184.049 9.15249H188.814L182.594 16.7214L189 24.4741Z" fill="#F2994A"/>
<path d="M29.5727 0.399952C23.532 0.292704 16.6429 3.41949 12.2823 8.26992C8.0695 8.35743 4.0532 10.051 1.06998 12.9978C0.984463 13.0812 0.924193 13.1867 0.89596 13.3023C0.867727 13.4179 0.872653 13.539 0.910184 13.6519C0.947715 13.7649 1.01636 13.8652 1.10838 13.9416C1.2004 14.018 1.31214 14.0674 1.431 14.0843L6.40022 14.7891L5.78648 15.4696C5.67673 15.5913 5.61825 15.7501 5.62305 15.9132C5.62785 16.0764 5.69555 16.2315 5.81226 16.3467L14.099 24.5525C14.2154 24.6681 14.3722 24.7352 14.537 24.7397C14.7019 24.7442 14.8622 24.6859 14.9848 24.5767L15.672 23.969L16.3838 28.8896C16.4186 29.1297 16.6094 29.3059 16.8402 29.3825C16.8998 29.4014 16.962 29.4109 17.0246 29.4105C17.2114 29.4079 17.39 29.3343 17.5236 29.205C20.4698 26.2876 22.1782 22.2696 22.2568 18.1431C27.1603 13.8162 30.3437 6.99698 30.2032 1.02301C30.1986 0.858976 30.1307 0.702922 30.0134 0.587005C29.8961 0.471089 29.7384 0.404139 29.5727 0.399952ZM23.6313 11.421C23.0034 12.0428 22.1782 12.3543 21.3517 12.3543C20.5252 12.3543 19.7 12.0428 19.0721 11.421C18.469 10.8215 18.1303 10.0098 18.1303 9.16365C18.1303 8.31748 18.469 7.50578 19.0721 6.90633C20.3292 5.66149 22.3742 5.66149 23.6313 6.90633C24.8884 8.15118 24.8884 10.1774 23.6313 11.421Z" fill="#353297"/>
<path d="M0.0261677 29.4866C0.237624 28.7882 2.1317 22.6163 3.51132 21.2502C4.25939 20.5114 5.27275 20.0966 6.32923 20.0966C7.38571 20.0966 8.39908 20.5114 9.14714 21.2502C9.89348 21.9908 10.3126 22.9943 10.3126 24.0405C10.3126 25.0868 9.89348 26.0903 9.14714 26.8309C7.76752 28.197 1.53473 30.0726 0.829442 30.282C0.71794 30.3144 0.599689 30.3164 0.487102 30.288C0.374515 30.2595 0.271745 30.2015 0.189579 30.1202C0.107412 30.0388 0.048881 29.937 0.0201281 29.8256C-0.00862477 29.7141 -0.00653859 29.597 0.0261677 29.4866Z" fill="#F2994A"/>
</svg>
